<?xml version="1.0" encoding="UTF-8" standalone="no"?>
<!DOCTYPE svg PUBLIC "-//W3C//DTD SVG 1.1//EN" "http://www.w3.org/Graphics/SVG/1.1/DTD/svg11.dtd">
<svg width="100%" height="100%" viewBox="0 0 34 29" version="1.1" xmlns="http://www.w3.org/2000/svg" xmlns:xlink="http://www.w3.org/1999/xlink" xml:space="preserve" xmlns:serif="http://www.serif.com/" style="fill-rule:evenodd;clip-rule:evenodd;stroke-linejoin:round;stroke-miterlimit:2;">
    <g transform="matrix(1,0,0,1,-1338.78,-287.247)">
        <g transform="matrix(0.976659,0,0,0.976659,177.868,-60.2904)">
            <path d="M1222.83,371.918C1222.89,372.537 1222.92,373.183 1222.92,373.856C1222.92,376.148 1222.58,378.122 1221.91,379.779C1221.23,381.437 1220.27,382.715 1219.01,383.616C1217.75,384.516 1216.24,384.966 1214.48,384.966C1212.78,384.966 1211.3,384.536 1210.03,383.677L1209.08,385.212L1205.98,385.212L1208.1,381.744C1207.44,380.782 1206.93,379.636 1206.58,378.306C1206.22,376.976 1206.04,375.493 1206.04,373.856C1206.04,373.183 1206.07,372.537 1206.13,371.918L1209.45,371.918C1209.39,372.521 1209.35,373.167 1209.35,373.856C1209.35,375.677 1209.6,377.232 1210.09,378.521L1214.15,371.918L1217.23,371.918L1211.72,380.915C1212.5,381.57 1213.42,381.897 1214.48,381.897C1216.01,381.897 1217.25,381.206 1218.19,379.825C1219.13,378.444 1219.61,376.455 1219.61,373.856C1219.61,373.172 1219.57,372.526 1219.5,371.918L1222.83,371.918ZM1214.78,355.843C1215.18,355.996 1215.62,356.151 1216.09,356.307C1217.22,356.676 1218.22,357.121 1219.09,357.642C1219.95,358.164 1220.64,358.829 1221.14,359.637C1221.64,360.446 1221.89,361.474 1221.89,362.722C1221.89,363.868 1221.61,364.906 1221.04,365.837C1220.46,366.768 1219.64,367.51 1218.56,368.062C1217.49,368.614 1216.2,368.891 1214.68,368.891C1213.17,368.891 1211.84,368.614 1210.71,368.062C1209.57,367.51 1208.68,366.722 1208.04,365.699C1207.39,364.676 1207.06,363.458 1207.04,362.047L1210.48,362.047C1210.5,363.131 1210.87,364.057 1211.6,364.824C1212.32,365.591 1213.34,365.975 1214.65,365.975C1215.86,365.975 1216.8,365.694 1217.48,365.131C1218.15,364.568 1218.49,363.837 1218.49,362.937C1218.49,362.18 1218.29,361.55 1217.89,361.049C1217.49,360.548 1216.87,360.098 1216.03,359.699C1215.19,359.3 1214.11,358.885 1212.78,358.456C1211,357.883 1209.69,357.09 1208.85,356.077C1208.79,356 1208.73,355.922 1208.67,355.843L1214.78,355.843ZM1203.45,355.843L1203.45,358.758L1197.68,358.758L1197.68,368.522L1194.43,368.522L1194.43,358.758L1188.66,358.758L1188.66,355.843L1203.45,355.843ZM1190.79,375.237L1190.79,372.475L1201.34,372.475L1201.34,375.237L1190.79,375.237Z" style="fill:rgb(34,34,34);"/>
        </g>
    </g>
</svg>
