<?xml version="1.0" encoding="UTF-8" standalone="no"?>
<!DOCTYPE svg PUBLIC "-//W3C//DTD SVG 1.1//EN" "http://www.w3.org/Graphics/SVG/1.1/DTD/svg11.dtd">
<svg width="100%" height="100%" viewBox="0 0 75 14" version="1.1" xmlns="http://www.w3.org/2000/svg" xmlns:xlink="http://www.w3.org/1999/xlink" xml:space="preserve" xmlns:serif="http://www.serif.com/" style="fill-rule:evenodd;clip-rule:evenodd;stroke-linejoin:round;stroke-miterlimit:2;">
    <g transform="matrix(1,0,0,1,-950.877,-185.017)">
        <g transform="matrix(1.05314,0,0,1.05314,-262.173,-206.666)">
            <path d="M1222.83,371.918C1222.89,372.537 1222.92,373.183 1222.92,373.856C1222.92,376.148 1222.58,378.122 1221.91,379.779C1221.23,381.437 1220.27,382.715 1219.01,383.616C1217.75,384.516 1216.24,384.966 1214.48,384.966C1212.78,384.966 1211.3,384.536 1210.03,383.677L1209.08,385.212L1205.98,385.212L1208.1,381.744C1207.44,380.782 1206.93,379.636 1206.58,378.306C1206.22,376.976 1206.04,375.493 1206.04,373.856C1206.04,373.183 1206.07,372.537 1206.13,371.918L1209.45,371.918C1209.39,372.521 1209.35,373.167 1209.35,373.856C1209.35,375.677 1209.6,377.232 1210.09,378.521L1214.15,371.918L1217.23,371.918L1211.72,380.915C1212.5,381.57 1213.42,381.897 1214.48,381.897C1216.01,381.897 1217.25,381.206 1218.19,379.825C1219.13,378.444 1219.61,376.455 1219.61,373.856C1219.61,373.172 1219.57,372.526 1219.5,371.918L1222.83,371.918ZM1177.96,371.918C1178.37,372.072 1178.8,372.227 1179.28,372.383C1180.4,372.751 1181.4,373.196 1182.27,373.718C1183.14,374.24 1183.82,374.905 1184.33,375.713C1184.83,376.521 1185.08,377.549 1185.08,378.797C1185.08,379.943 1184.79,380.981 1184.22,381.912C1183.64,382.843 1182.82,383.585 1181.75,384.137C1180.67,384.69 1179.38,384.966 1177.87,384.966C1176.35,384.966 1175.03,384.69 1173.89,384.137C1172.76,383.585 1171.87,382.797 1171.22,381.774C1170.58,380.751 1170.24,379.534 1170.22,378.122L1173.66,378.122C1173.68,379.206 1174.06,380.132 1174.78,380.9C1175.51,381.667 1176.53,382.05 1177.84,382.05C1179.04,382.05 1179.98,381.769 1180.66,381.206C1181.33,380.644 1181.67,379.912 1181.67,379.012C1181.67,378.255 1181.47,377.626 1181.07,377.125C1180.67,376.623 1180.06,376.173 1179.22,375.774C1178.38,375.375 1177.29,374.961 1175.96,374.531C1174.18,373.958 1172.87,373.165 1172.03,372.153C1171.97,372.076 1171.91,371.998 1171.85,371.918L1177.96,371.918ZM1166.63,371.918L1166.63,374.834L1160.86,374.834L1160.86,384.598L1157.61,384.598L1157.61,374.834L1151.84,374.834L1151.84,371.918L1166.63,371.918ZM1190.79,375.237L1190.79,372.475L1201.34,372.475L1201.34,375.237L1190.79,375.237Z" style="fill:rgb(245,245,245);"/>
        </g>
    </g>
</svg>
