<svg width="75" height="14" viewBox="0 0 75 14" fill="none" xmlns="http://www.w3.org/2000/svg">
<path fill-rule="evenodd" clip-rule="evenodd" d="M74.9049 0C74.9683 0.651873 75 1.33217 75 2.04091C75 4.45463 74.6412 6.53346 73.9343 8.27846C73.2168 10.0245 72.2038 11.3704 70.8743 12.3192C69.5449 13.267 67.9515 13.7409 66.0945 13.7409C64.3007 13.7409 62.7392 13.2881 61.3991 12.3835L60.3967 14H57.1257L59.3626 10.3478C58.6662 9.33472 58.1281 8.12787 57.7588 6.72724C57.3789 5.32661 57.1891 3.76484 57.1891 2.04091C57.1891 1.33217 57.2207 0.651873 57.284 0H60.7871C60.7238 0.635023 60.6816 1.31532 60.6816 2.04091C60.6816 3.95861 60.9453 5.5962 61.4624 6.95366L65.7463 0H68.9961L63.1823 9.47481C64.0053 10.1646 64.976 10.509 66.0945 10.509C67.7089 10.509 69.0172 9.78126 70.009 8.32692C71.0009 6.87258 71.5074 4.77793 71.5074 2.04091C71.5074 1.32058 71.4652 0.640289 71.3914 0H74.9049ZM27.5605 0C27.9931 0.162178 28.4469 0.325406 28.9533 0.489691C30.1351 0.877234 31.1902 1.34586 32.1082 1.89558C33.0262 2.4453 33.7436 3.14564 34.2817 3.99655C34.8093 4.84746 35.0731 5.93004 35.0731 7.24432C35.0731 8.45117 34.7671 9.54429 34.1657 10.5247C33.5537 11.5052 32.6885 12.2866 31.5595 12.8679C30.42 13.4503 29.0588 13.7409 27.4655 13.7409C25.8617 13.7409 24.4689 13.4503 23.2661 12.8679C22.0737 12.2866 21.1346 11.4567 20.4488 10.3794C19.7735 9.30207 19.4147 8.02047 19.3936 6.53348H23.0234C23.0445 7.67505 23.4455 8.65021 24.2052 9.45899C24.9754 10.2667 26.0516 10.6701 27.4338 10.6701C28.7 10.6701 29.6919 10.3741 30.4094 9.78124C31.1164 9.1894 31.4751 8.41852 31.4751 7.47073C31.4751 6.67353 31.264 6.01113 30.842 5.48352C30.4199 4.95487 29.7763 4.48095 28.89 4.06076C28.0036 3.64057 26.8535 3.20461 25.4502 2.75177C23.572 2.14834 22.1898 1.31324 21.3035 0.247497C21.2402 0.166407 21.1768 0.0842485 21.1135 0H27.5605ZM15.6057 0V3.07087H9.51746V13.3534H6.08822V3.07087H0V0H15.6057ZM41.0981 3.49526V0.586587H52.2298V3.49526H41.0981Z" fill="#222222"/>
</svg>
